<svg xmlns="http://www.w3.org/2000/svg">
	<symbol viewBox="0 0 600 600" id="ico_1">
		<title>Icon</title>
		<path d="M299.68,600h-.1c-80.17,0-155.46-31.52-212-88.67S0,378.2,0,297.33c0-78.73,31.45-153.22,88.43-209.75S220.3,0,299.46,0h.11A300.18,300.18,0,0,1,600,299.88h0c0,79.94-31.3,155.25-88.17,212.07S379.64,600,299.68,600Zm-.22-573.67c-72.17,0-140.52,28.38-192.48,79.94S26.39,225.68,26.34,297.34c0,73.9,28.35,143.31,80,195.47s120.21,80.84,193.3,80.86h.09c72.94,0,141.66-28.53,193.53-80.35s80.46-120.53,80.45-193.44A273.84,273.84,0,0,0,299.56,26.33Z"/><path d="M293.14,301.88H150.42c0,7.58.52,14.25-.14,20.81-.78,7.85,2.22,9.79,9.78,9.74,51.68-.3,103.36-.15,155-.18,3,0,5.91-.3,9.14-.48V162h-31.1Z"/><path d="M293.14,301.88V162h31.1V331.77c-3.23.18-6.18.48-9.14.48-51.68,0-103.36-.12-155,.18-7.56.05-10.56-1.89-9.78-9.74.66-6.56.14-13.23.14-20.81Z"/>
	</symbol>
</svg>